<svg width="1024" height="1024" viewBox="0 0 1024 1024" fill="none" xmlns="http://www.w3.org/2000/svg">
<g clip-path="url(#clip0_18_11)">
<path d="M0 0C337.92 0 675.84 0 1024 0C1024 337.92 1024 675.84 1024 1024C686.08 1024 348.16 1024 0 1024C0 686.08 0 348.16 0 0Z" fill="white"/>
<path d="M796.438 307.625C798.168 307.582 798.168 307.582 799.934 307.539C803.631 308.095 804.771 309.054 807 312C807.676 315.042 807.65 316.904 806.035 319.625C802.348 324.243 797.724 327.81 793.129 331.48C789.668 334.246 786.299 337.114 782.938 340C782.343 340.51 781.749 341.021 781.136 341.546C776.863 345.229 772.647 348.971 768.477 352.77C766.399 354.641 764.301 356.482 762.191 358.316C758.156 361.841 754.217 365.457 750.312 369.125C749.626 369.77 748.939 370.416 748.231 371.08C739.786 379.047 731.317 387.062 723.797 395.922C721.93 398.081 720.001 400.175 718.059 402.267C712.447 408.315 707.156 414.555 702 421C701.089 422.119 700.178 423.238 699.266 424.355C673.644 455.89 652.042 490.011 632.461 525.555C630.843 528.49 629.202 531.41 627.539 534.32C621.332 545.231 615.874 556.413 610.533 567.769C608.616 571.81 606.655 575.83 604.693 579.849C597.73 594.122 591.085 608.496 584.822 623.092C583.929 625.165 583.03 627.236 582.13 629.306C563.351 672.52 544.973 716.829 533.09 762.52C529.548 776.058 529.548 776.058 524 780C519.874 781.13 516.506 781.721 512.566 779.836C509.57 777.692 506.958 775.299 504.375 772.688C503.855 772.164 503.335 771.641 502.799 771.101C497.505 765.662 492.88 759.772 488.311 753.722C487.054 752.07 485.771 750.443 484.477 748.82C477.708 740.258 471.771 731.259 466 722C465.615 721.384 465.23 720.769 464.833 720.134C439.858 679.983 421.877 636.529 404.397 592.767C396.773 573.71 388.976 554.718 380 536.25C379.496 535.211 378.993 534.172 378.474 533.102C376.993 530.063 375.5 527.03 374 524C373.583 523.155 373.166 522.31 372.736 521.439C358.831 493.509 341.126 467.364 320.098 444.316C318.294 442.325 316.549 440.3 314.812 438.25C306.852 429.145 298.171 420.61 288.676 413.121C285.903 410.923 283.241 408.624 280.562 406.312C267.992 395.845 254.403 386.788 239.993 379.071C236.371 377.125 232.779 375.126 229.187 373.125C228.511 372.755 227.835 372.386 227.138 372.005C220.903 368.542 220.903 368.542 219 366C218.575 361.922 218.687 360.469 221 357C254.889 345.704 306.254 367.734 336.402 382.637C370.144 399.719 401.669 424.062 425 454C425.8 455.007 426.601 456.014 427.426 457.051C442.425 476.052 454.772 497.078 465 519C465.378 519.805 465.757 520.61 466.146 521.439C476.002 542.627 484.102 565.118 489 588C491.053 585.947 491.616 584.778 492.624 582.12C492.932 581.325 493.239 580.53 493.556 579.712C493.885 578.85 494.215 577.989 494.555 577.102C498.651 566.643 503.27 556.499 508.125 546.375C508.537 545.513 508.948 544.651 509.372 543.762C531.419 497.639 558.349 453.82 593.581 416.521C595.846 414.093 598.038 411.601 600.25 409.125C607.058 401.629 614.499 394.792 622 388C622.592 387.463 623.184 386.927 623.793 386.374C642.786 369.295 664.464 354.962 687 343C687.816 342.567 688.631 342.134 689.472 341.688C703.279 334.425 717.338 328.319 732 323C732.875 322.68 733.75 322.361 734.651 322.032C753.932 315.071 775.772 307.86 796.438 307.625Z" fill="#35AD2C"/>
<circle cx="487.5" cy="315.5" r="71.5" fill="#35AD2C"/>
</g>
<defs>
<clipPath id="clip0_18_11">
<rect width="1024" height="1024" fill="white"/>
</clipPath>
</defs>
</svg>
